# xmcd
#
# Track frame offsets: 
#        150
#        16286
#        39971
#        60641
#        80435
#        99214
#        121737
#        142193
#        165148
#        182287
#        198658
#        220637
#        239379
#        262191
#        280320
#        307424
#        329702
#
# Disc length: 4639 seconds
#
# Revision: 0
# Processed by: cddbd v1.5.2PL0 Copyright (c) Steve Scherf et al.
# Submitted via: ExactAudioCopy v0.95a5
#
DISCID=ef121d11
DTITLE=刘若英 - cd two
DYEAR=2002
DGENRE=Beat
TTITLE0=越爱越美丽
TTITLE1=情书
TTITLE2=成全
TTITLE3=大家来恋爱
TTITLE4=对面男生的房间
TTITLE5=遗忘的城市
TTITLE6=花季未了
TTITLE7=打一把锁匙给你
TTITLE8=蒲公英
TTITLE9=我的失败与伟大
TTITLE10=似水年华
TTITLE11=说你永远都不离开我
TTITLE12=i believe
TTITLE13=收获
TTITLE14=四月天
TTITLE15=好久好久
TTITLE16=人之初
EXTD=
EXTT0=
EXTT1=
EXTT2=
EXTT3=
EXTT4=
EXTT5=
EXTT6=
EXTT7=
EXTT8=
EXTT9=
EXTT10=
EXTT11=
EXTT12=
EXTT13=
EXTT14=
EXTT15=
EXTT16=
PLAYORDER=
